Coordinates
version=1
nRows=16
nColumns=36
inDegrees=yes

Units are S.I. units (second, meters, Newtons, ...)
If the header above contains a line with 'inDegrees', this indicates whether rotational values are in degrees (yes) or radians (no).

endheader
time	pelvis_tilt	pelvis_list	pelvis_rotation	pelvis_tx	pelvis_ty	pelvis_tz	hip_flexion_r	hip_adduction_r	hip_rotation_r	knee_angle_r	knee_angle_r_beta	ankle_angle_r	subtalar_angle_r	mtp_angle_r	hip_flexion_l	hip_adduction_l	hip_rotation_l	knee_angle_l	knee_angle_l_beta	ankle_angle_l	subtalar_angle_l	mtp_angle_l	lumbar_extension	lumbar_bending	lumbar_rotation	arm_flex_r	arm_add_r	arm_rot_r	elbow_flex_r	pro_sup_r	arm_flex_l	arm_add_l	arm_rot_l	elbow_flex_l	pro_sup_l
      1.60000000	    -23.01321750	     -0.78664670	     -1.41986372	     -0.33877045	      0.66981301	     -0.57312568	     82.31983761	     -4.91779184	      4.66540020	     86.58213671	      1.51114336	     23.68724406	    -17.50782032	     -7.46635085	     83.23307503	     -9.69606548	      5.87398763	     85.95191001	      1.50014383	     23.36533019	    -12.68809691	     -7.46635085	    -21.94640257	      2.18824654	      0.05644088	    -12.00309390	     -4.53242068	    -18.83950750	     22.37838964	    102.67465500	    -11.02832566	     -2.96044073	    -32.57212835	     26.30225121	     99.95328059
      1.61000000	    -23.34660352	     -0.63912513	     -1.44959071	     -0.33621914	      0.66117419	     -0.57300254	     83.70873564	     -4.84571303	      5.08785331	     88.55065913	      1.54550056	     24.02175301	    -17.70831896	     -7.46644600	     84.56690698	     -9.42729385	      6.42188609	     87.92788646	      1.53463112	     23.72246205	    -12.86256741	     -7.46644600	    -22.44253667	      1.91516947	     -0.24963817	     -9.63845593	     -4.39564353	    -18.60259558	     23.11704152	    102.71716804	     -8.89778921	     -3.07852309	    -32.20097001	     26.78421711	    100.06917434
      1.62000000	    -24.08127641	     -0.23498535	     -1.46262715	     -0.33401705	      0.65375260	     -0.57271119	     85.28535303	     -4.81857633	      5.66551776	     90.07071015	      1.57203045	     25.66118526	    -16.83329820	     -7.46870071	     86.04041803	     -9.18078864	      6.57912313	     89.46059829	      1.56138199	     25.01192752	    -11.64940633	     -7.46870071	    -22.30427032	      1.44228256	     -1.08821351	     -6.67007910	     -4.92688420	    -14.65760948	     22.93807358	    102.41302266	     -6.77114867	     -4.53288625	    -26.11682166	     25.08573759	    100.78088867
      1.63000000	    -24.30713460	     -0.47232574	     -1.67810680	     -0.33220793	      0.64917690	     -0.57139808	     85.78982664	     -4.12976739	      5.63947348	     90.85662935	      1.58574733	     25.46134902	    -18.33866539	     -7.47060835	     86.98099971	     -9.37732221	      7.29240773	     90.67266148	      1.58253648	     24.79115786	    -11.78254439	     -7.47060835	    -22.87782939	      1.52649603	     -0.97473424	     -3.69361607	     -5.54863411	    -11.62441521	     23.57869403	    101.81673673	     -3.69417067	     -5.65264952	    -22.09351522	     24.08073525	    100.51054271
      1.64000000	    -24.69527327	     -0.47702464	     -1.69578807	     -0.33086021	      0.64562236	     -0.57015627	     86.40215323	     -3.69109200	      5.91569159	     91.47206481	      1.59648870	     25.63127449	    -18.48244392	     -7.47064854	     87.73627411	     -9.29467621	      7.68067100	     91.31402577	      1.59373040	     24.87650912	    -11.85435934	     -7.47064854	    -23.17406209	      1.40815575	     -1.11761953	     -0.52440361	     -5.82016649	    -11.45897532	     24.62099929	    101.86535792	     -0.65190613	     -6.25928079	    -21.83817888	     24.98754732	    100.59238609
      1.65000000	    -24.33902297	     -0.49752125	     -1.61887050	     -0.32919832	      0.64387951	     -0.56920003	     86.08974355	     -3.34082435	      6.20961923	     92.05845502	      1.60672314	     26.34973202	    -19.20459928	     -7.47097268	     87.48038882	     -9.11027776	      7.99552078	     91.82562383	      1.60265947	     25.10636395	    -12.10368647	     -7.47097268	    -24.20548388	      1.40143550	     -1.65723123	      2.95671161	     -6.35130750	    -10.19832181	     26.28388739	    101.82283332	      2.67270478	     -7.19525975	    -20.40161472	     25.34315768	    100.55588228
      1.66000000	    -24.52661446	     -0.34480579	     -1.44770796	     -0.32737725	      0.64218751	     -0.56845002	     86.34564922	     -3.20474199	      6.57550825	     92.54140103	      1.61515214	     26.52791353	    -19.56788931	     -7.47940317	     87.51811986	     -8.76562383	      8.08897266	     91.96939228	      1.60516871	     25.54031538	    -12.48760574	     -7.47940317	    -24.18348202	      1.26328499	     -1.38705254	      6.01345575	     -7.69934634	     -5.91294284	     27.56318871	     95.58714729	      6.99960037	     -9.09853857	    -11.31248604	     23.93432092	     94.32640571
      1.67000000	    -24.34952143	     -0.43067266	     -1.34431797	     -0.32506435	      0.64193054	     -0.56744795	     86.02518428	     -3.00532486	      6.58331455	     92.84632900	      1.62047414	     26.76603805	    -19.85535994	     -7.47956635	     87.12092257	     -8.68459469	      8.28060234	     92.05736575	      1.60670413	     25.96874678	    -12.70078868	     -7.47956635	    -24.45247915	      1.30064799	     -1.62086849	      9.72572172	     -8.45188440	     -5.80843980	     28.74736766	     95.68505586	     10.66912733	    -10.03738858	    -11.17123498	     24.96352405	     94.40351754
      1.68000000	    -24.19477856	     -0.52931150	     -1.25463994	     -0.32273188	      0.64224844	     -0.56653174	     85.66954148	     -2.85837556	      6.53618012	     93.06877544	      1.62435656	     27.02278495	    -20.10221668	     -7.47972389	     86.74270183	     -8.72924035	      8.34924705	     92.10306381	      1.60750171	     26.33486131	    -12.76971828	     -7.47972389	    -24.40476463	      1.36417359	     -1.74452451	     13.55673285	     -9.35271349	     -5.80413665	     29.84942420	     95.78650035	     14.58636540	    -11.06449156	    -11.11074113	     25.85254462	     94.48397908
      1.69000000	    -24.16718101	     -0.60451419	     -0.97659465	     -0.32071137	      0.64283708	     -0.56633986	     85.41881193	     -3.03366212	      6.47160844	     93.21721977	      1.62694740	     27.26099959	    -20.21776552	     -7.47990811	     86.51718856	     -8.55627251	      8.37867189	     92.05635333	      1.60668646	     26.59574864	    -12.71000118	     -7.47990811	    -23.96439793	      1.52675928	     -1.96480633	     17.50009742	    -10.50720071	     -6.03814623	     30.74549563	     95.85588734	     18.83484967	    -12.06145325	    -11.24210728	     26.46937661	     94.53596951
      1.70000000	    -24.11942834	     -0.78003759	     -0.74565456	     -0.31894089	      0.64455351	     -0.56618229	     84.94440691	     -3.15675122	      6.24863131	     92.98879778	      1.62296069	     27.48543442	    -20.32098854	     -7.48011308	     86.18126880	     -8.40331358	      8.53611449	     91.77203120	      1.60172411	     26.76566111	    -12.64783389	     -7.48011308	    -23.41454051	      1.82120676	     -1.98773113	     21.80603748	    -11.70952394	     -6.62943015	     31.38228692	     95.90253543	     23.50261310	    -12.86080717	    -11.65549328	     26.81525181	     94.52676232
      1.71000000	    -23.89044562	     -1.06760703	     -0.64951373	     -0.31701773	      0.64752163	     -0.56543884	     84.15629988	     -3.06675771	      5.81348538	     92.55960718	      1.61546990	     27.62844067	    -20.58273733	     -7.48034518	     85.58705077	     -8.50979296	      8.74486602	     91.40265553	      1.59527728	     26.82883359	    -12.60070593	     -7.48034518	    -22.95744400	      2.12510086	     -1.76028616	     26.44259212	    -12.89062391	     -7.67743292	     31.89566416	     95.98881294	     28.61797254	    -13.39434089	    -12.36329829	     26.92024335	     94.46340012
      1.72000000	    -23.89425001	     -1.10328911	     -0.43599272	     -0.31512580	      0.65089269	     -0.56482978	     83.61466686	     -3.21311603	      5.57759749	     92.03244244	      1.60626914	     27.38346158	    -21.11023393	     -7.48653080	     85.07008832	     -8.35241432	      8.74357022	     90.79090576	      1.58460024	     26.70426818	    -12.69234990	     -7.48653080	    -22.07125895	      2.19499040	     -1.33566306	     30.61314104	    -13.74592248	    -12.01494136	     33.71004899	    101.00807646	     34.29355355	    -13.36755277	    -13.40994031	     26.50312948	     95.30400331
      1.73000000	    -23.91594845	     -1.04401947	      0.03328860	     -0.31325710	      0.65475110	     -0.56507336	     83.05020140	     -3.76902594	      5.41135460	     91.49123497	      1.59682329	     27.40572998	    -21.10898066	     -7.48667533	     84.46196199	     -7.76653563	      8.75395035	     90.04705152	      1.57161753	     26.55816733	    -12.75092500	     -7.48667533	    -21.03060115	      2.31540522	     -1.67779885	     35.47915681	    -14.96222378	    -12.18480774	     35.24491841	    101.14005549	     39.26269715	    -13.62429064	    -13.61020678	     27.63179013	     95.43268010
      1.74000000	    -24.10413142	     -1.10592150	      0.21995635	     -0.31159742	      0.65934082	     -0.56450414	     82.48289147	     -3.82566229	      5.26654141	     90.60167975	      1.58129762	     27.40674843	    -21.11029151	     -7.48676296	     83.97165861	     -7.77144880	      8.65463224	     89.10295081	      1.55513986	     26.39693298	    -12.65350942	     -7.48676296	    -19.76396617	      2.41257664	     -1.73927926	     40.55649868	    -16.05330275	    -12.12982478	     36.94728054	    101.29490143	     44.28259808	    -13.85972938	    -13.68240642	     28.95621605	     95.58741434
      1.75000000	    -23.69504154	     -1.57384900	     -0.02237155	     -0.31001568	      0.66592124	     -0.56243549	     81.04508274	     -3.03703055	      4.86383486	     89.36706747	      1.55974957	     26.97032586	    -21.87266998	     -7.48723629	     82.91356864	     -8.74796563	      8.64918774	     88.13990440	      1.53833153	     26.32782902	    -12.00457838	     -7.48723629	    -19.27369304	      2.70768350	     -1.09197266	     45.95419269	    -17.41865122	    -11.01051761	     38.83868597	    101.76692953	     50.16547050	    -13.64846536	    -14.64048537	     29.62135570	     95.81495496
